PathFileType	4	(X/Y/Z)	Patient4_TMGait_0pt6_01_right_32.trc.trc
DataRate	CameraRate	NumFrames	NumMarkers	Units	OrigDataRate	OrigDataStartFrame	OrigNumFrames
77.777777777778	77.777777777778	5	33	mm	77.777777777778	18	       141
Frame#	Time	Sacral			L.Shoulder			Chest			R.Shoulder			Neck			R.ASIS			L.ASIS			R.Thigh.Superior			R.Thigh.Lateral			R.Thigh.Inferior			R.Patella			L.Thigh.Superior			L.Thigh.Lateral			L.Thigh.Inferior			L.Patella			L.Shank.Superior			L.Shank.Lateral			L.Shank.Inferior			R.Shank.Superior			R.Shank.Lateral			R.Shank.Inferior			R.Heel			R.Midfoot.Superior			R.Midfoot.Lateral			R.Toe			L.Heel			L.Midfoot.Lateral			L.Midfoot.Superior			L.Toe			L.Elbow			L.Wrist			R.Elbow			R.Wrist			
		X1	Y1	Z1	X2	Y2	Z2	X3	Y3	Z3	X4	Y4	Z4	X5	Y5	Z5	X6	Y6	Z6	X7	Y7	Z7	X8	Y8	Z8	X9	Y9	Z9	X10	Y10	Z10	X11	Y11	Z11	X12	Y12	Z12	X13	Y13	Z13	X14	Y14	Z14	X15	Y15	Z15	X16	Y16	Z16	X17	Y17	Z17	X18	Y18	Z18	X19	Y19	Z19	X20	Y20	Z20	X21	Y21	Z21	X22	Y22	Z22	X23	Y23	Z23	X24	Y24	Z24	X25	Y25	Z25	X26	Y26	Z26	X27	Y27	Z27	X28	Y28	Z28	X29	Y29	Z29	X30	Y30	Z30	X31	Y31	Z31	X32	Y32	Z32	X33	Y33	Z33	

18	38.488571428571	731.630969182659	1005.409705988526	430.742568123345	927.677023060187	1439.402990801525	276.064140763990	1011.912320791141	1365.611492568078	444.526625105213	908.951066504884	1431.161903104208	609.611362255231	888.423967240441	1493.368608780372	429.450304999369	947.835473166904	942.708893530512	569.168220883058	957.827671836885	960.745918206270	294.877766515574	1024.156817573517	770.736294611224	542.465548022536	982.642282496413	650.572579269451	617.677583793657	1072.677617424462	612.650880939775	539.224989356482	1107.972300790557	529.906488461095	558.524523672854	961.443729394510	730.898355647318	326.631164267757	849.637247807162	634.791622871338	259.778871405166	906.090105273252	543.485733685869	329.776855025810	890.829679931085	477.991261022450	340.033875858157	861.531491421881	410.789947248912	332.050139619193	765.837152290874	301.846049071893	280.375452225529	804.117745954956	189.893462654321	358.087529272764	1091.285023289881	441.415657522543	568.854166541013	1036.996791059430	328.415197890785	632.475721316563	1106.012010703640	241.556286354910	582.479411659814	1013.208706790591	53.921505917956	553.960916653724	1175.207246236934	128.945624496988	598.095631388620	1095.879549357529	52.195470200603	629.390494247206	1298.578959900710	91.903736001958	626.456041439744	667.271549133975	38.725431554337	402.919954061426	741.151361735813	35.122276504823	322.262618263582	824.642885077093	95.423758882709	349.323183565774	953.058189331396	42.211174266737	321.508980858315	1011.038783985551	1114.098562622576	122.030811027762	1256.217950764248	1025.608253563837	124.406407776541	773.210346604271	1110.180302394646	710.327709820990	745.097313697458	852.324404190517	731.728576039657	
19	38.501428571429	732.852387559870	1003.771228885781	432.631147067718	927.838206326885	1438.090786750112	278.067033588670	1012.079456661271	1364.660610338872	446.631280525590	908.803941008238	1430.341882515421	611.483917048749	888.220532120353	1491.953349767167	431.366376077604	949.295233809607	940.986765655131	571.119488243004	959.183064976404	959.636250296928	296.843756457983	1024.436268834215	767.595067297527	544.530113426695	980.635255090400	647.250782444286	618.630244354024	1070.970795518418	609.179929127173	540.765895137773	1105.016459534777	527.028629103398	559.057954965049	960.705780094116	729.119070808075	327.770638217559	847.888261618982	634.065754338270	260.973402100014	903.477708290061	542.190894601717	330.819926479171	887.616596508323	476.503359152142	340.947415926229	857.497415007552	409.616120575511	332.840804119129	760.430559488706	301.872607531579	280.880728213201	797.471343591695	189.305147590559	358.300996324861	1089.481649726351	438.427555789766	569.237424442452	1035.939088732645	324.474032813028	631.626521223013	1106.535029121307	238.757567696603	581.755960637378	1016.235950926616	50.457455531490	551.498042848914	1177.106708784472	126.771919651942	597.028383428558	1098.243896074567	49.556849760282	627.684794510129	1300.623704730006	90.875075503232	626.515150292948	659.474243075297	38.671095736410	402.859986969494	733.383879922386	35.064669441297	322.256085224048	816.899313963476	95.350295225787	349.371837321342	945.302460555690	41.987116617319	321.491879710348	1012.726873753026	1113.804973954305	123.469780803302	1260.133725517352	1032.741033383810	126.082837132589	767.264041610301	1112.993694842839	712.576936276126	734.290427099543	855.846289367844	733.619346064507	
20	38.514285714286	734.293342907118	1002.022571152043	434.925379944343	927.824142195914	1436.713069838493	280.164279006894	1012.259143994660	1363.754290598675	448.782140981352	908.758397084120	1429.501306012465	613.496491437327	887.981750524672	1490.503122093677	433.394983942545	951.060113311557	939.253004505157	573.172379791035	960.631838198406	958.477917504691	298.929436878934	1025.321625777752	764.527874033683	546.711279931498	978.958893036238	643.916875858847	619.369455968285	1069.716077221010	605.803220326062	542.233318241095	1102.279676063806	523.840154818691	559.433396817946	960.388982048546	727.348585726287	329.031448164396	846.633285440768	633.231467514809	262.445148766224	901.559245287404	540.800720654208	332.037179350571	885.152404989915	474.797096316768	342.069872083326	854.054330642269	408.254284626121	333.830523943128	755.414685798763	301.927341954569	281.578087592728	791.018910544296	188.652793262116	358.600704258305	1087.310656435029	435.017593390073	569.395721814525	1033.660857422465	320.561282895707	630.511792472576	1105.056932703333	235.505387686409	580.739177244214	1015.669426403049	47.630621237152	548.837009922391	1176.000484862051	123.817290815102	595.580072782311	1096.989558876466	47.012414141339	625.804551128322	1299.333500512512	88.007098569906	626.224483190508	651.661650580224	38.652912130486	402.777998595415	725.632213885952	35.008949016451	322.255984591265	809.189524929495	95.287442341659	349.424737880176	937.581479733560	41.730388585765	321.458903453138	1013.965027481496	1113.201043157157	125.200552656075	1263.170115699296	1038.881868662462	127.961565023982	762.353925189570	1115.359947429020	714.814817457706	725.202315753369	858.824257759878	735.302076202124	
21	38.527142857143	735.920644146004	1000.227070168575	437.597913100650	927.659252844684	1435.317570782388	282.356017564631	1012.472769660478	1362.920775441467	450.978359783959	908.840747721151	1428.657814689787	615.656413071572	887.745204589512	1489.070138260749	435.540118588141	953.081897353041	937.571479828402	575.326156622837	962.149346894519	957.305488261562	301.133172676267	1026.725555688001	761.580616946943	549.015755394568	977.598524774011	640.685043974563	619.956139849777	1068.867902254048	602.611279730619	543.644086379927	1099.773792805361	520.471996346794	559.694914861344	960.519034861421	725.633774076396	330.416848912230	845.899205201080	632.315097110734	264.196508805565	900.390089140429	539.337148962363	333.409122020559	883.510961482080	472.882497182889	343.362857131876	851.239666038465	406.729533887139	334.997247732659	750.819180512176	302.056604725672	282.460361192685	784.784276813212	187.977487188487	358.966784430392	1084.874977257617	431.341054119881	569.388093354566	1030.437752967744	316.752776103246	629.271686472730	1101.931335437741	231.913746905023	579.521972125714	1012.016758206500	45.392626772560	546.186600224609	1172.394296496662	120.224375885701	593.816419470033	1092.705163620668	44.600494361524	623.883719901319	1295.306443167734	83.559085114037	625.527761548489	643.838788179528	38.747469935507	402.662465306285	717.903840846103	34.980283494641	322.256783106438	801.543907057255	95.245305935960	349.459424203654	929.906561317245	41.439703849276	321.406854238706	1014.729311845014	1112.296035427087	127.225407401167	1265.357232074343	1043.960859624095	130.030351463585	758.562237468247	1117.177920602423	717.010715779997	717.841045426716	861.152236889562	736.820370475923	
22	38.540000000000	737.686194713995	998.467936549099	440.602136861553	927.378611811321	1433.965713379298	284.639638958960	1012.743073111633	1362.198078328954	453.219567134590	909.074957580653	1427.845367935394	617.965488041242	887.552666432435	1487.721424463494	437.800730921731	955.298034320989	936.020309144620	577.586108265892	963.709838377128	956.168285991008	303.458966345743	1028.521868292968	758.808814618120	551.447587933978	976.540254893481	637.687356177143	620.485191417622	1068.354513550001	599.696806624894	545.023219762349	1097.495415942068	517.079469204589	559.911194383548	961.099488289575	724.032773477061	331.932353581483	845.701763612101	631.356350473440	266.217076090578	900.015280524949	537.839776105621	334.908696005361	882.757583526632	470.790331013565	344.766682443488	849.083475829138	405.088129467731	336.300561425540	746.670622574983	302.326436046094	283.507263901650	778.798756019381	187.341653528184	359.365053422470	1082.282311775216	427.590513153040	569.301659686779	1026.581807344826	313.157063886894	628.066524116325	1097.572863484291	228.161002532493	578.221832725270	1005.934665757278	43.702602965849	543.740801217341	1166.876308052063	116.238502342344	591.845140055145	1086.105826745518	42.399546218543	622.058641809579	1289.224689509336	77.975144813906	624.442212091038	636.019570612274	39.066521274800	402.500666785163	710.208697324242	35.021174663859	322.249681323076	794.004614297554	95.237691551515	349.444572459126	922.287139983731	41.116832846024	321.333262111227	1014.994113874064	1111.111417162877	129.547834986247	1266.719879268130	1047.918902526623	132.279085946696	755.956932494855	1118.382336530886	719.149809259463	712.234576849012	862.761744146102	738.214106755309	
